<?xml version="1.0" encoding="utf-8"?>
<!-- Generator: Adobe Illustrator 25.2.1, SVG Export Plug-In . SVG Version: 6.00 Build 0)  -->
<svg version="1.1" xmlns="http://www.w3.org/2000/svg" xmlns:xlink="http://www.w3.org/1999/xlink" x="0px" y="0px"
	 viewBox="0 0 744.92 612" style="enable-background:new 0 0 744.92 612;" xml:space="preserve">
<style type="text/css">
	.st0{opacity:0.1;fill:#FFFFFF;}
	.st1{fill:#1F1F1F;}
	.st2{fill:url(#SVGID_1_);stroke:url(#SVGID_2_);stroke-width:5.4394;stroke-linecap:round;stroke-miterlimit:10;}
	.st3{fill:url(#SVGID_3_);stroke:url(#SVGID_4_);stroke-width:5.4394;stroke-linecap:round;stroke-miterlimit:10;}
	.st4{fill:url(#SVGID_5_);stroke:url(#SVGID_6_);stroke-width:5.4394;stroke-linecap:round;stroke-miterlimit:10;}
	.st5{fill:url(#SVGID_7_);}
	.st6{fill:url(#SVGID_8_);}
	.st7{fill:url(#SVGID_9_);}
	.st8{fill:url(#SVGID_10_);}
	.st9{fill:url(#SVGID_11_);}
	.st10{fill:url(#SVGID_12_);}
	.st11{fill:url(#SVGID_13_);stroke:url(#SVGID_14_);stroke-width:5.4394;stroke-linecap:round;stroke-miterlimit:10;}
	.st12{fill:url(#SVGID_15_);}
	.st13{fill:url(#SVGID_16_);stroke:url(#SVGID_17_);stroke-width:5.4394;stroke-linecap:round;stroke-miterlimit:10;}
	.st14{fill:url(#SVGID_18_);}
	.st15{fill:url(#SVGID_19_);stroke:url(#SVGID_20_);stroke-width:5.4394;stroke-linecap:round;stroke-miterlimit:10;}
	.st16{fill:url(#SVGID_21_);}
	.st17{fill:url(#SVGID_22_);}
	.st18{fill:url(#SVGID_23_);}
	.st19{fill:url(#SVGID_24_);}
	.st20{fill:url(#SVGID_25_);}
	.st21{fill:url(#SVGID_26_);}
	.st22{fill:url(#SVGID_27_);}
	.st23{fill:url(#SVGID_28_);}
	.st24{fill:url(#SVGID_29_);}
	.st25{fill:url(#SVGID_30_);}
	.st26{fill:none;stroke:#000000;stroke-width:2.0994;stroke-miterlimit:10;}
	.st27{fill:none;stroke:url(#SVGID_31_);stroke-width:2.6768;stroke-miterlimit:10;}
	.st28{fill:url(#SVGID_32_);}
	.st29{opacity:0.19;fill:#FFFFFF;}
	.st30{fill:url(#SVGID_33_);}
	.st31{fill:url(#SVGID_34_);}
	.st32{fill:url(#SVGID_35_);}
	.st33{fill:url(#SVGID_36_);}
	.st34{fill:url(#SVGID_37_);}
	.st35{fill:url(#SVGID_38_);}
	.st36{fill:url(#SVGID_39_);}
	.st37{fill:url(#SVGID_40_);}
	.st38{fill:url(#SVGID_41_);}
	.st39{fill:url(#SVGID_42_);}
	.st40{fill:url(#SVGID_43_);}
	.st41{fill:url(#SVGID_44_);}
	.st42{fill:url(#SVGID_45_);}
	.st43{fill:url(#SVGID_46_);}
	.st44{opacity:0.2;fill:#FFFFFF;}
	.st45{opacity:0.08;fill:#FFFFFF;}
	.st46{fill:url(#SVGID_47_);}
	.st47{fill:url(#SVGID_48_);}
	.st48{fill:url(#SVGID_49_);}
	.st49{fill:url(#SVGID_50_);}
	.st50{fill:url(#SVGID_51_);}
	.st51{fill:url(#SVGID_52_);}
	.st52{fill:url(#SVGID_53_);}
	.st53{fill:url(#SVGID_54_);}
	.st54{fill:url(#SVGID_55_);}
	.st55{fill:none;}
	.st56{fill:url(#SVGID_56_);}
	.st57{fill:url(#SVGID_57_);}
	.st58{fill:url(#SVGID_58_);}
	.st59{fill:url(#SVGID_59_);}
	.st60{fill:url(#SVGID_60_);}
	.st61{opacity:0.25;fill:#FFFFFF;}
	.st62{opacity:0.29;fill:#FFFFFF;}
	.st63{fill:#000201;}
	.st64{fill:none;stroke:#000000;stroke-miterlimit:10;}
	.st65{fill:none;stroke:#000000;stroke-width:0.4212;stroke-miterlimit:10;}
	.st66{fill:url(#SVGID_61_);}
	.st67{fill:url(#SVGID_62_);}
	.st68{fill:url(#SVGID_63_);}
	.st69{fill:url(#SVGID_64_);}
	.st70{fill:url(#SVGID_65_);}
	.st71{opacity:0.14;fill:#FFFFFF;}
	.st72{fill:none;stroke:#FFFFFF;stroke-miterlimit:10;}
	.st73{fill:url(#SVGID_66_);}
	.st74{fill:url(#SVGID_67_);}
	.st75{fill:url(#SVGID_68_);}
	.st76{fill:url(#SVGID_69_);}
	.st77{fill:url(#SVGID_70_);}
	.st78{fill:#FFFFFF;}
	.st79{fill:none;stroke:#FFFFFF;stroke-width:1.0008;stroke-miterlimit:10;}
	.st80{fill:none;stroke:#FFFFFF;stroke-width:0.4212;stroke-miterlimit:10;}
	.st81{fill:url(#SVGID_71_);}
	.st82{fill:url(#SVGID_72_);}
	.st83{fill:url(#SVGID_73_);}
	.st84{fill:url(#SVGID_74_);}
	.st85{fill:url(#SVGID_75_);}
	.st86{fill:url(#SVGID_76_);}
	.st87{fill:url(#SVGID_77_);}
	.st88{fill:url(#SVGID_78_);}
	.st89{fill:url(#SVGID_79_);}
	.st90{fill:url(#SVGID_80_);}
	.st91{fill:none;stroke:#FFFFFF;stroke-width:0.9973;stroke-miterlimit:10;}
	.st92{fill:none;stroke:#FFFFFF;stroke-width:0.42;stroke-miterlimit:10;}
	.st93{fill:url(#SVGID_81_);}
	.st94{fill:url(#SVGID_82_);}
	.st95{fill:url(#SVGID_83_);}
	.st96{fill:url(#SVGID_84_);}
	.st97{fill:url(#SVGID_85_);}
	.st98{fill:url(#SVGID_86_);}
	.st99{fill:url(#SVGID_87_);}
	.st100{fill:url(#SVGID_88_);}
	.st101{fill:url(#SVGID_89_);}
	.st102{fill:url(#SVGID_90_);}
	.st103{fill:url(#SVGID_91_);}
	.st104{fill:url(#SVGID_92_);}
	.st105{fill:url(#SVGID_93_);}
	.st106{fill:url(#SVGID_94_);}
	.st107{fill:url(#SVGID_95_);}
	.st108{fill:url(#SVGID_96_);}
	.st109{fill:url(#SVGID_97_);}
	.st110{fill:url(#SVGID_98_);}
	.st111{fill:url(#SVGID_99_);}
	.st112{fill:url(#SVGID_100_);}
	.st113{fill:url(#SVGID_101_);}
	.st114{fill:url(#SVGID_102_);}
	.st115{fill:url(#SVGID_103_);}
	.st116{fill:url(#SVGID_104_);}
	.st117{fill:url(#SVGID_105_);}
	.st118{fill:url(#SVGID_106_);}
	.st119{fill:url(#SVGID_107_);}
	.st120{fill:url(#SVGID_108_);}
	.st121{fill:url(#SVGID_109_);}
	.st122{fill:url(#SVGID_110_);}
	.st123{fill:url(#SVGID_111_);}
	.st124{fill:url(#SVGID_112_);}
	.st125{fill:url(#SVGID_113_);}
	.st126{fill:url(#SVGID_114_);}
	.st127{fill:url(#SVGID_115_);}
	.st128{fill:url(#SVGID_116_);}
	.st129{fill:url(#SVGID_117_);}
	.st130{fill:url(#SVGID_118_);}
	.st131{fill:url(#SVGID_119_);}
	.st132{fill:url(#SVGID_120_);}
	.st133{fill:none;stroke:#000000;stroke-width:2.2822;stroke-miterlimit:10;}
	.st134{fill:none;stroke:#000000;stroke-width:0.9613;stroke-miterlimit:10;}
	.st135{fill:none;stroke:#FFFFFF;stroke-width:1.5518;stroke-miterlimit:10;}
	.st136{fill:url(#SVGID_121_);}
	.st137{fill:url(#SVGID_122_);}
	.st138{fill:url(#SVGID_123_);}
	.st139{fill:url(#SVGID_124_);}
	.st140{fill:url(#SVGID_125_);}
	.st141{fill:none;stroke:#FFFFFF;stroke-width:0.6536;stroke-miterlimit:10;}
</style>
<g id="Layer_5">
	<g id="Layer_8">
	</g>
</g>
<g id="Layer_1">
</g>
<g id="Layer_2">
</g>
<g id="Layer_3">
</g>
<g id="Layer_4">
</g>
<g id="Layer_6">
</g>
<g id="Layer_9">
</g>
<g id="Layer_7">
</g>
<g id="Layer_12">
</g>
<g id="Layer_10">
</g>
<g id="Layer_11">
	<g>
		<g>
			<line class="st133" x1="105.92" y1="71.12" x2="637.3" y2="70.76"/>
			<circle cx="369.93" cy="105.11" r="8.05"/>
			<circle cx="370.21" cy="449.22" r="8.05"/>
			<circle cx="405.13" cy="146.05" r="8.05"/>
			<circle cx="336.58" cy="146.05" r="8.05"/>
			<circle cx="637.28" cy="70.76" r="8.05"/>
			<circle cx="107.16" cy="70.76" r="8.05"/>
			<line class="st133" x1="370.21" y1="105.12" x2="370.21" y2="451"/>
			<line class="st133" x1="370.21" y1="105.12" x2="637.3" y2="70.76"/>
			<line class="st133" x1="370.21" y1="105.12" x2="103.12" y2="70.76"/>
			<line class="st133" x1="370.21" y1="105.12" x2="404.04" y2="146.35"/>
			<line class="st133" x1="370.21" y1="105.12" x2="336.34" y2="146.35"/>
			<line class="st133" x1="370.21" y1="448.26" x2="404.99" y2="147.51"/>
			<line class="st133" x1="336.34" y1="147.51" x2="370.21" y2="448.26"/>
			<line class="st133" x1="105.92" y1="71.12" x2="637.3" y2="70.76"/>
			<line class="st133" x1="404.99" y1="147.51" x2="637.3" y2="71.79"/>
			<line class="st134" x1="105.92" y1="71.12" x2="640.62" y2="70.76"/>
			<line class="st133" x1="110.25" y1="72.52" x2="341.06" y2="147.51"/>
		</g>
		<g>
			<path d="M170.59,497.33h-14.76c-2.83,0-4.84-0.6-6.04-1.8s-1.8-2.94-1.8-5.21c0-1.66,0.25-3.18,0.74-4.57
				c0.49-1.38,0.89-2.32,1.2-2.81h50.83c2.83,0,4.84,0.6,6.04,1.8s1.8,2.94,1.8,5.21c0,1.66-0.25,3.18-0.74,4.57
				c-0.49,1.38-0.89,2.32-1.2,2.81h-20.67v48.89h-15.41V497.33z"/>
			<path d="M213.67,484.79c0-2.4,0.71-4.09,2.12-5.07c1.41-0.98,3.29-1.48,5.63-1.48c1.66,0,3.15,0.2,4.47,0.6
				c1.32,0.4,2.17,0.66,2.54,0.78v22.32c1.17-1.04,2.77-2,4.8-2.86c2.03-0.86,4.64-1.29,7.84-1.29c2.77,0,5.32,0.39,7.66,1.15
				c2.34,0.77,4.38,1.97,6.13,3.6c1.75,1.63,3.12,3.69,4.1,6.18c0.98,2.49,1.48,5.43,1.48,8.81v28.69h-14.85v-25.65
				c0-3.14-0.69-5.41-2.08-6.83c-1.38-1.41-3.46-2.12-6.23-2.12s-4.92,0.83-6.46,2.49c-1.54,1.66-2.31,4.24-2.31,7.75v24.35h-14.85
				V484.79z"/>
			<path d="M269.76,486.54c0-2.34,0.78-4.3,2.35-5.9c1.57-1.6,3.52-2.4,5.86-2.4c2.34,0,4.3,0.8,5.9,2.4c1.6,1.6,2.4,3.57,2.4,5.9
				c0,2.34-0.8,4.29-2.4,5.86c-1.6,1.57-3.57,2.35-5.9,2.35c-2.34,0-4.29-0.78-5.86-2.35S269.76,488.88,269.76,486.54z
				 M270.59,505.73c0-2.4,0.71-4.09,2.12-5.07c1.41-0.98,3.29-1.48,5.63-1.48c1.66,0,3.17,0.2,4.52,0.6
				c1.35,0.4,2.21,0.66,2.58,0.78v45.67h-14.85V505.73z"/>
			<path d="M294.2,517.72c0-3.2,0.61-6.04,1.84-8.53c1.23-2.49,2.92-4.57,5.07-6.23c2.15-1.66,4.64-2.92,7.47-3.78
				c2.83-0.86,5.87-1.29,9.13-1.29c3.2,0,6.23,0.43,9.09,1.29c2.86,0.86,5.35,2.12,7.47,3.78c2.12,1.66,3.8,3.74,5.03,6.23
				c1.23,2.49,1.85,5.34,1.85,8.53v28.51h-14.85v-25.09c0-3.26-0.74-5.67-2.21-7.24c-1.48-1.57-3.6-2.35-6.37-2.35
				c-5.78,0-8.67,3.2-8.67,9.59v25.09H294.2V517.72z"/>
			<path d="M357.12,550.84c0.18,0.12,0.68,0.34,1.48,0.65c0.8,0.31,1.83,0.63,3.09,0.97c1.26,0.34,2.74,0.65,4.43,0.92
				c1.69,0.28,3.52,0.42,5.49,0.42c1.97,0,3.8-0.22,5.49-0.65c1.69-0.43,3.14-1.15,4.34-2.17s2.14-2.31,2.81-3.88
				c0.68-1.57,1.01-3.52,1.01-5.86v-1.01c-0.31,0.31-0.82,0.74-1.52,1.29c-0.71,0.55-1.63,1.11-2.77,1.66
				c-1.14,0.55-2.48,1.05-4.01,1.48c-1.54,0.43-3.26,0.65-5.17,0.65c-3.32,0-6.38-0.51-9.18-1.52c-2.8-1.01-5.21-2.51-7.24-4.47
				c-2.03-1.97-3.6-4.38-4.7-7.24c-1.11-2.86-1.66-6.1-1.66-9.73c0-3.63,0.65-6.93,1.94-9.92c1.29-2.98,3.07-5.55,5.35-7.7
				c2.27-2.15,5-3.83,8.16-5.03c3.17-1.2,6.66-1.8,10.47-1.8c4.24,0,8.16,0.8,11.76,2.4c3.6,1.6,6.56,3.94,8.9,7.01
				c1.48,1.97,2.6,4.28,3.37,6.92c0.77,2.65,1.15,6,1.15,10.06v13.75c0,4.8-0.68,8.93-2.03,12.41c-1.35,3.47-3.23,6.33-5.63,8.58
				c-2.4,2.24-5.24,3.9-8.53,4.98c-3.29,1.08-6.87,1.61-10.75,1.61c-2.71,0-5.2-0.17-7.47-0.51c-2.28-0.34-4.29-0.74-6.04-1.2
				c-1.75-0.46-3.2-0.92-4.34-1.38c-1.14-0.46-1.89-0.82-2.26-1.06L357.12,550.84z M364.22,522.33c0,3.51,0.98,6.12,2.95,7.84
				c1.97,1.72,4.49,2.58,7.56,2.58c3.01,0,5.52-0.95,7.52-2.86c2-1.91,3-4.43,3-7.57c0-3.14-1-5.7-3-7.7c-2-2-4.51-3-7.52-3
				c-1.54,0-2.95,0.28-4.24,0.83c-1.29,0.55-2.4,1.32-3.32,2.31c-0.92,0.98-1.65,2.12-2.17,3.41
				C364.48,519.48,364.22,520.86,364.22,522.33z"/>
			<path d="M411.18,531.84c0.49,0.37,1.31,0.82,2.45,1.34c1.14,0.52,2.49,1.01,4.06,1.48c1.57,0.46,3.35,0.86,5.35,1.2
				c2,0.34,4.11,0.51,6.32,0.51c2.52,0,4.43-0.23,5.72-0.69c1.29-0.46,1.94-1.28,1.94-2.45c0-1.23-0.54-2.08-1.62-2.54
				c-1.08-0.46-2.75-0.84-5.03-1.15l-4.8-0.55c-2.4-0.31-4.71-0.75-6.92-1.34c-2.21-0.58-4.17-1.44-5.86-2.58
				c-1.69-1.14-3.03-2.6-4.01-4.38c-0.98-1.78-1.48-4.03-1.48-6.73c0-2.27,0.42-4.38,1.25-6.32s2.14-3.63,3.92-5.07
				c1.78-1.44,4.06-2.58,6.83-3.41s6.06-1.25,9.87-1.25c3.88,0,7.21,0.25,10.01,0.74c2.8,0.49,5.21,1.26,7.24,2.31
				c1.17,0.62,2.11,1.37,2.81,2.26c0.71,0.89,1.06,1.98,1.06,3.27c0,0.98-0.2,1.86-0.6,2.63c-0.4,0.77-0.86,1.43-1.38,1.98
				c-0.52,0.55-1.01,0.98-1.48,1.29c-0.46,0.31-0.75,0.49-0.88,0.55c-0.18-0.18-0.69-0.52-1.52-1.01c-0.83-0.49-1.94-0.97-3.32-1.43
				c-1.38-0.46-3.04-0.88-4.98-1.25s-4.14-0.55-6.6-0.55c-2.77,0-4.69,0.32-5.77,0.97c-1.08,0.65-1.61,1.49-1.61,2.54
				c0,1.05,0.49,1.78,1.48,2.21c0.98,0.43,2.46,0.8,4.43,1.11l8.4,1.2c2.09,0.31,4.11,0.75,6.04,1.34c1.94,0.58,3.66,1.43,5.17,2.54
				c1.51,1.11,2.71,2.52,3.6,4.24c0.89,1.72,1.34,3.81,1.34,6.27c0,5.17-1.97,9.19-5.9,12.08c-3.94,2.89-9.38,4.34-16.33,4.34
				c-3.63,0-6.84-0.25-9.64-0.74c-2.8-0.49-5.21-1.06-7.24-1.71s-3.68-1.32-4.94-2.03c-1.26-0.71-2.14-1.25-2.63-1.61L411.18,531.84
				z"/>
			<path d="M460.72,484.79c0-2.4,0.71-4.09,2.12-5.07c1.41-0.98,3.29-1.48,5.63-1.48c1.66,0,3.17,0.2,4.52,0.6
				c1.35,0.4,2.21,0.66,2.58,0.78v66.61h-14.85V484.79z"/>
			<path d="M529.26,545.95c-0.37,0.12-1.2,0.26-2.49,0.42c-1.29,0.15-2.91,0.32-4.84,0.51c-1.94,0.18-4.15,0.34-6.64,0.46
				c-2.49,0.12-5.12,0.18-7.89,0.18c-4.67,0-8.55-0.42-11.62-1.25s-5.54-1.95-7.38-3.37c-1.84-1.41-3.14-3.06-3.87-4.94
				c-0.74-1.88-1.11-3.86-1.11-5.95c0-5.66,1.81-9.7,5.44-12.13c3.63-2.43,9.38-3.64,17.25-3.64c1.97,0,3.61,0.03,4.93,0.09
				c1.32,0.06,2.41,0.15,3.28,0.28c0-2.15-0.88-3.84-2.63-5.07c-1.75-1.23-4.66-1.84-8.72-1.84c-1.91,0-3.58,0.11-5.03,0.32
				c-1.45,0.22-2.67,0.48-3.69,0.78c-1.01,0.31-1.83,0.62-2.45,0.92c-0.62,0.31-1.05,0.55-1.29,0.74c-0.12-0.12-0.37-0.37-0.74-0.74
				s-0.74-0.84-1.11-1.43c-0.37-0.58-0.71-1.25-1.02-1.98c-0.31-0.74-0.46-1.54-0.46-2.4c0-5.35,5.47-8.03,16.42-8.03
				c3.57,0,6.92,0.32,10.06,0.97s5.86,1.75,8.16,3.32s4.12,3.64,5.44,6.23c1.32,2.58,1.98,5.81,1.98,9.69V545.95z M514.4,526.67
				c-0.55-0.12-1.37-0.23-2.44-0.32c-1.08-0.09-2.69-0.14-4.84-0.14c-1.85,0-3.35,0.15-4.52,0.46c-1.17,0.31-2.08,0.72-2.72,1.25
				s-1.09,1.12-1.34,1.8c-0.25,0.68-0.37,1.38-0.37,2.12c0,0.55,0.09,1.14,0.28,1.75c0.18,0.62,0.58,1.17,1.2,1.66
				c0.61,0.49,1.54,0.91,2.77,1.25c1.23,0.34,2.86,0.51,4.89,0.51c1.6,0,3.07-0.05,4.43-0.14c1.35-0.09,2.24-0.2,2.67-0.32V526.67z"
				/>
			<path d="M537.84,484.79c0-2.4,0.71-4.09,2.12-5.07c1.41-0.98,3.29-1.48,5.63-1.48c1.66,0,3.15,0.2,4.47,0.6
				c1.32,0.4,2.17,0.66,2.54,0.78v23.34c1.11-1.11,2.78-2.23,5.03-3.37c2.24-1.14,5.09-1.71,8.53-1.71c3.14,0,6.09,0.6,8.86,1.8
				s5.18,2.88,7.24,5.03c2.06,2.15,3.69,4.75,4.89,7.8c1.2,3.04,1.8,6.44,1.8,10.19c0,3.69-0.65,7.07-1.94,10.15
				c-1.29,3.08-3.08,5.69-5.35,7.84c-2.28,2.15-4.97,3.83-8.07,5.03s-6.47,1.8-10.1,1.8c-4.43,0-8.46-0.8-12.08-2.4
				s-6.61-3.93-8.95-7.01c-1.48-1.97-2.61-4.4-3.41-7.29c-0.8-2.89-1.2-6.3-1.2-10.24V484.79z M563.11,533.87
				c3.07,0,5.61-1.02,7.61-3.04c2-2.03,3-4.71,3-8.03c0-3.32-1-6.04-3-8.17c-2-2.12-4.54-3.18-7.61-3.18
				c-1.54,0-2.95,0.29-4.24,0.88c-1.29,0.58-2.41,1.38-3.37,2.4c-0.95,1.01-1.69,2.21-2.21,3.6c-0.52,1.38-0.78,2.88-0.78,4.47
				c0,3.44,1,6.15,3,8.12C557.5,532.88,560.04,533.87,563.11,533.87z"/>
		</g>
	</g>
</g>
</svg>
